<svg width="64" height="64" viewBox="0 0 64 64" fill="none" xmlns="http://www.w3.org/2000/svg">
<path d="M40.3001 20.15H40.5001L40.4001 20.05L47.4001 13.05V12.9C41.5001 7.69999 33.3501 5.89999 25.8001 8.14999C18.2501 10.4 12.4501 16.4 10.3501 24C10.4501 23.95 10.6001 23.9 10.7501 23.9C13.3501 22.2 16.4501 21.2 19.7001 21.2C20.8001 21.2 21.8501 21.3 22.9001 21.5C22.9501 21.45 23.0001 21.45 23.0501 21.45C27.5501 16.5 35.1501 15.9 40.3501 20.15H40.3001Z" fill="#7F5AF0"/>
<path d="M54.0499 23.9C52.8999 19.65 50.4999 15.8 47.1499 12.85L39.9999 19.95C42.9999 22.4 44.7499 26.1 44.6499 29.95V31.2C53.0999 31.2 53.0999 43.8 44.6499 43.8H31.9499V53.8H31.8999L31.9499 53.9H44.6499C51.9499 53.95 58.3999 49.25 60.5499 42.35C62.6999 35.45 60.0499 27.95 54.0499 23.9V23.9Z" fill="white"/>
<path d="M19.5002 53.95H32.6502V43.85H19.5002C18.5502 43.85 17.6502 43.65 16.8002 43.3L9.2002 50.6V50.7C12.2002 52.85 15.8002 54 19.5502 54L19.5002 53.95Z" fill="#7F5AF0"/>
<path d="M20.0999 20.95C12.6499 21 6.04994 25.6 3.64994 32.35C1.24994 39.15 3.64994 46.6 9.54994 51L17.3499 43.55C13.0499 41.7 12.0499 36.3 15.3499 33.15C18.6499 29.95 24.2499 30.95 26.1999 35.05L33.9999 27.6C30.6999 23.45 25.5499 21 20.0999 21.05V20.95Z" fill="white"/>
</svg>
