<svg width="70" height="70" viewBox="0 0 70 70" fill="none" xmlns="http://www.w3.org/2000/svg">
<path d="M60.028 3.9818C60.0627 4.80387 59.8554 5.61805 59.432 6.32351C59.0097 7.02549 58.3889 7.58667 57.6481 7.93625C56.9084 8.28346 56.0819 8.40154 55.2746 8.27531C54.466 8.14929 53.7134 7.78505 53.1128 7.22914C52.5097 6.66985 52.0851 5.94503 51.8921 5.14548C51.6991 4.34593 51.7463 3.50721 52.0278 2.73437C52.3062 1.96305 52.8064 1.29124 53.4655 0.803359C54.1232 0.317842 54.9107 0.0396416 55.7274 0.00437431C56.2693 -0.0184585 56.8103 0.0662447 57.3192 0.253595C57.8281 0.440946 58.2949 0.727234 58.6926 1.09594C59.5 1.84364 59.9792 2.88014 60.0259 3.97961L60.028 3.9818Z" fill="white"/>
<path d="M35.9612 52.932C24.9701 52.932 15.3719 48.9048 10.3861 42.9423C12.2348 48.2809 15.6935 52.915 20.2856 56.2062C24.8585 59.4824 30.3424 61.2447 35.9678 61.2456C41.5928 61.2436 47.0762 59.4814 51.6494 56.2062C56.2407 52.9152 59.698 48.2809 61.5446 42.9423C56.55 48.9048 46.9518 52.932 35.9612 52.932ZM35.9568 14.1548C46.9479 14.1548 56.5478 18.1836 61.532 24.1434C59.6831 18.805 56.2245 14.1711 51.6325 10.8801C47.0602 7.6039 41.5773 5.84077 35.9525 5.83789C30.3276 5.84077 24.8447 7.6039 20.2725 10.8801C15.6798 14.1702 12.2213 18.8044 10.374 24.1434C15.3681 18.1945 24.9657 14.1548 35.9568 14.1548Z" fill="#7F5AF0"/>
<path d="M20.8711 64.5225C20.9162 65.5589 20.6555 66.5857 20.1214 67.4751C19.5907 68.3601 18.8084 69.067 17.8744 69.5057C16.9403 69.9443 15.8968 70.0949 14.8768 69.9382C13.8569 69.7806 12.908 69.3199 12.1534 68.6159C11.3956 67.9106 10.8615 66.9984 10.6172 65.9925C10.3761 64.9827 10.4356 63.9244 10.7884 62.9481C11.1423 61.9749 11.7754 61.1279 12.6084 60.5128C13.5786 59.7998 14.767 59.4474 15.9691 59.516C17.1712 59.5847 18.3117 60.0702 19.1944 60.8891C20.2101 61.833 20.8126 63.1393 20.8711 64.5247V64.5225Z" fill="white"/>
<path d="M11.6404 12.8067C11.0363 12.833 10.4381 12.6776 9.92321 12.3605C9.40482 12.0427 8.99218 11.5785 8.73737 11.0265C8.48255 10.4744 8.397 9.85923 8.49149 9.25859C8.58224 8.6564 8.85008 8.09482 9.26095 7.64531C9.66816 7.1978 10.199 6.88111 10.7862 6.73531C11.373 6.58873 11.9905 6.62382 12.557 6.83594C13.1254 7.04537 13.6181 7.42046 13.9712 7.91274C14.3882 8.48876 14.5941 9.1908 14.5544 9.90082C14.5147 10.6108 14.2317 11.2855 13.753 11.8114C13.4836 12.1087 13.1581 12.3497 12.7951 12.5205C12.4321 12.6913 12.039 12.7886 11.6382 12.8067H11.6404Z" fill="white"/>
</svg>
