<svg width="60" height="60" viewBox="0 0 60 60" fill="none" xmlns="http://www.w3.org/2000/svg">
<path d="M25.4625 12.7331L15.6113 7.76202L4.79346 13.1583L14.9156 18.2395L25.4625 12.7331ZM29.9817 15.0145L40.3125 20.2312L29.5955 25.6111L19.4588 20.5228L29.9817 15.0145ZM43.7803 7.83515L54.3952 13.1578L44.9011 17.924L34.5502 12.7017L43.7803 7.83515ZM39.2119 5.54249L29.6555 0.750458L20.2036 5.4689L30.0511 10.433L39.2119 5.54249ZM31.7414 46.6898V59.7286L43.3172 53.9517L43.3064 40.9073L31.7414 46.6898ZM43.3008 36.3539L43.2881 23.4469L31.7414 29.1872V42.0998L43.3008 36.3539ZM57.1969 33.9366V47.0269L47.3222 51.9525L47.3147 38.9226L57.1969 33.9366ZM57.1969 29.3592V16.5309L47.3039 21.4491L47.3114 34.3819L57.1969 29.3592Z" fill="#7F5AF0"/>
<path d="M27.6542 29.1872L19.8593 25.2652V42.2058C19.8593 42.2058 10.3212 21.9169 9.44041 20.093C9.32697 19.8567 8.85822 19.6003 8.73916 19.5361C7.01979 18.6389 2.01025 16.103 2.01025 16.103V46.0425L8.94072 49.7578V34.1016C8.94072 34.1016 18.3762 52.2309 18.4732 52.4306C18.5717 52.6284 19.5134 54.5362 20.5278 55.2084C21.8731 56.1019 27.6504 59.5753 27.6504 59.5753L27.6542 29.1872Z" fill="#7F5AF0"/>
</svg>
