<svg width="71" height="71" viewBox="0 0 71 71" fill="none" xmlns="http://www.w3.org/2000/svg">
<path d="M35.5 26.625H14.7917C13.2225 26.625 11.7175 27.2484 10.608 28.358C9.49836 29.4675 8.875 30.9725 8.875 32.5417V44.375C8.875 45.9442 9.49836 47.4491 10.608 48.5587C11.7175 49.6683 13.2225 50.2917 14.7917 50.2917H23.6667" stroke="#7F5AF0" stroke-width="3.66667" stroke-linecap="round" stroke-linejoin="round"/>
<path d="M35.5 44.375H56.2083C57.7775 44.375 59.2825 43.7516 60.392 42.6421C61.5016 41.5325 62.125 40.0275 62.125 38.4583V26.625C62.125 25.0558 61.5016 23.5509 60.392 22.4413C59.2825 21.3317 57.7775 20.7083 56.2083 20.7083H47.3333" stroke="#7F5AF0" stroke-width="3.66667" stroke-linecap="round" stroke-linejoin="round"/>
<path d="M23.6665 26.625V14.7917C23.6665 13.2225 24.2899 11.7175 25.3995 10.608C26.509 9.49836 28.014 8.875 29.5832 8.875H41.4165C42.9857 8.875 44.4906 9.49836 45.6002 10.608C46.7098 11.7175 47.3332 13.2225 47.3332 14.7917V29.5833C47.3332 31.1525 46.7098 32.6575 45.6002 33.767C44.4906 34.8766 42.9857 35.5 41.4165 35.5H29.5832C28.014 35.5 26.509 36.1234 25.3995 37.233C24.2899 38.3425 23.6665 39.8475 23.6665 41.4167V56.2083C23.6665 57.7775 24.2899 59.2825 25.3995 60.392C26.509 61.5016 28.014 62.125 29.5832 62.125H41.4165C42.9857 62.125 44.4906 61.5016 45.6002 60.392C46.7098 59.2825 47.3332 57.7775 47.3332 56.2083V44.375" stroke="#7F5AF0" stroke-width="3.66667" stroke-linecap="round" stroke-linejoin="round"/>
<path d="M32.5415 17.75V17.7801" stroke="#7F5AF0" stroke-width="3.66667" stroke-linecap="round" stroke-linejoin="round"/>
<path d="M38.4585 53.25V53.2801" stroke="#7F5AF0" stroke-width="3.66667" stroke-linecap="round" stroke-linejoin="round"/>
</svg>
