<svg width="70" height="70" viewBox="0 0 70 70" fill="none" xmlns="http://www.w3.org/2000/svg">
<path d="M63.956 53.4882C60.2028 53.3859 57.3367 53.7354 54.8861 54.7684C54.1899 55.0621 53.0787 55.0703 52.9649 55.9426C53.3478 56.3434 53.4074 56.9428 53.7114 57.4361C54.2966 58.3822 55.2842 59.652 56.1658 60.317C57.1294 61.0444 58.122 61.8215 59.1545 62.4509C60.9909 63.5704 63.0411 64.2102 64.8092 65.3319C65.8515 65.9936 66.8867 66.8265 67.9034 67.5724C68.4065 67.9416 68.7439 68.5152 69.3974 68.7466V68.6405C69.054 68.203 68.9654 67.6025 68.6504 67.1459L67.263 65.7584C65.9067 63.9581 64.1846 62.3766 62.3542 61.0635C60.8946 60.0157 57.6281 58.6004 57.0195 56.9023L56.9128 56.7957C57.9475 56.6787 59.1588 56.3046 60.1142 56.0481C61.7188 55.6183 63.1527 55.7293 64.8092 55.3016L67.0497 54.6613V54.2347C66.2124 53.3755 65.6153 52.2381 64.7025 51.4604C62.3127 49.426 59.7052 47.3933 57.02 45.698C55.5303 44.7584 53.6901 44.1476 52.1113 43.3508C51.5803 43.0823 50.6473 42.9428 50.2967 42.4966C49.4671 41.44 49.016 40.1002 48.3767 38.8691C47.0374 36.2895 45.7221 33.4726 44.5354 30.7584C43.726 28.9078 43.1972 27.0834 42.1877 25.4231C37.3424 17.4568 32.1274 12.6492 24.0484 7.92313C22.329 6.91797 20.2591 6.52149 18.0716 6.00196C16.8985 5.93141 15.7244 5.85977 14.5508 5.78813C13.8338 5.48953 13.089 4.61289 12.4169 4.18743C9.74049 2.49649 2.87502 -1.18125 0.893144 3.65422C-0.358653 6.70633 2.764 9.68352 3.88018 11.2306C4.66439 12.3145 5.66791 13.5313 6.22791 14.7514C6.5965 15.5537 6.65994 16.3581 6.97549 17.2063C7.75041 19.2965 8.4258 21.5704 9.42932 23.5014C9.93627 24.4792 10.4952 25.5084 11.1367 26.3823C11.5293 26.9188 12.2036 27.1551 12.3097 27.9831C11.6513 28.9051 11.6135 30.3368 11.2433 31.5049C9.57533 36.7631 10.2048 43.2994 12.6307 47.1909C13.3745 48.3864 15.1283 50.9485 17.5389 49.9652C19.6477 49.1066 19.1768 46.4445 19.78 44.0962C19.9162 43.5641 19.8325 43.1725 20.0999 42.8159V42.9226L22.0211 46.7638C23.443 49.0536 25.9652 51.4462 28.1035 53.0606C29.212 53.8978 30.0848 55.3448 31.5181 55.8348V55.7277H31.4115C31.1337 55.2951 30.6989 55.1157 30.3445 54.7679C29.5095 53.9492 28.5809 52.9315 27.8907 51.9936C25.946 49.3538 24.2278 46.4647 22.662 43.4574C21.9139 42.0208 21.2637 40.437 20.6337 38.9752C20.3909 38.412 20.3942 37.5594 19.8878 37.2679C19.1971 38.3387 18.1804 39.2049 17.6467 40.4693C16.793 42.4906 16.6831 44.9559 16.3664 47.512C16.1794 47.5787 16.2625 47.5327 16.1526 47.6181C14.6662 47.2598 14.1445 45.7302 13.5916 44.4172C12.1949 41.0977 11.9351 35.7536 13.1645 31.9326C13.4828 30.9433 14.9199 27.8305 14.3381 26.9166C14.0603 26.0056 13.1437 25.4784 12.6313 24.7822C11.9963 23.9214 11.3631 22.7883 10.9228 21.7941C9.77986 19.2068 9.24611 16.3013 8.04244 13.685C7.46658 12.4343 6.49369 11.1683 5.69471 10.057C4.81041 8.82492 3.81947 7.91766 3.13369 6.42852C2.88978 5.89914 2.55893 5.05149 2.91986 4.50735C3.03471 4.14039 3.19768 3.98727 3.56025 3.8675C4.17932 3.39008 5.90307 4.0261 6.54729 4.29352C8.25846 5.00446 9.68689 5.68149 11.1367 6.6418C11.8317 7.10336 12.5361 7.99532 13.3772 8.2425H14.3375C15.8398 8.58758 17.5225 8.34914 18.9263 8.77571C21.407 9.5293 23.63 10.7023 25.6485 11.9771C31.7987 15.861 36.8278 21.3888 40.2676 27.9836C40.821 29.0456 41.0606 30.0584 41.5478 31.185C42.5311 33.4562 43.7698 35.793 44.7481 38.0144C45.7249 40.2303 46.6764 42.4665 48.0567 44.3106C48.7824 45.2796 51.5846 45.7997 52.8588 46.3384C53.7513 46.7152 55.2142 47.1089 56.0603 47.6181C57.6752 48.5926 59.2403 49.7525 60.7557 50.82C61.5121 51.3532 63.8401 52.5241 63.956 53.4882V53.4882ZM16.2581 12.833C15.4756 12.8182 14.9221 12.9183 14.337 13.0457V13.1523H14.4436C14.8171 13.9191 15.4761 14.4134 15.9371 15.0735C16.2926 15.8211 16.6486 16.5676 17.0046 17.3141L17.1107 17.2085C17.7719 16.742 18.0743 15.9977 18.0705 14.8602C17.8058 14.5819 17.767 14.233 17.5373 13.9005C17.2332 13.457 16.6431 13.2048 16.2581 12.833Z" fill="#7F5AF0"/>
</svg>
