<svg width="74" height="74" viewBox="0 0 74 74" fill="none" xmlns="http://www.w3.org/2000/svg">
<path d="M27.75 9.25H46.25" stroke="#7F5AF0" stroke-width="2.75" stroke-linecap="round" stroke-linejoin="round"/>
<path d="M30.8333 27.75H43.1666" stroke="#7F5AF0" stroke-width="2.75" stroke-linecap="round" stroke-linejoin="round"/>
<path d="M30.8334 9.25V27.75L18.5 61.6667C18.3513 61.9659 18.274 62.2957 18.2744 62.6299C18.2748 62.9641 18.3528 63.2937 18.5023 63.5926C18.6517 63.8916 18.8686 64.1517 19.1357 64.3525C19.4029 64.5534 19.713 64.6894 20.0417 64.75H53.9584C54.287 64.6894 54.5972 64.5534 54.8643 64.3525C55.1315 64.1517 55.3483 63.8916 55.4978 63.5926C55.6472 63.2937 55.7252 62.9641 55.7256 62.6299C55.726 62.2957 55.6488 61.9659 55.5 61.6667L43.1667 27.75V9.25" stroke="#7F5AF0" stroke-width="2.75" stroke-linecap="round" stroke-linejoin="round"/>
</svg>
