<svg width="91" height="91" viewBox="0 0 91 91" fill="none" xmlns="http://www.w3.org/2000/svg">
<path d="M75.8334 64.4583V18.9583C75.8334 14.7079 72.5005 11.375 68.2501 11.375C63.9996 11.375 60.6667 14.7079 60.6667 18.9583V64.4583L68.2501 72.0417L75.8334 64.4583Z" stroke="#7F5AF0" stroke-width="2.75" stroke-linecap="round" stroke-linejoin="round"/>
<path d="M60.6667 26.5417H75.8334" stroke="#7F5AF0" stroke-width="2.75" stroke-linecap="round" stroke-linejoin="round"/>
<path d="M68.25 72.0417H18.9583C16.9471 72.0417 15.0183 71.2427 13.5961 69.8206C12.174 68.3984 11.375 66.4696 11.375 64.4583C11.375 62.4471 12.174 60.5183 13.5961 59.0961C15.0183 57.674 16.9471 56.875 18.9583 56.875H34.125C36.1362 56.875 38.0651 56.076 39.4872 54.6539C40.9094 53.2317 41.7083 51.3029 41.7083 49.2917C41.7083 47.2804 40.9094 45.3516 39.4872 43.9294C38.0651 42.5073 36.1362 41.7083 34.125 41.7083H22.75" stroke="#7F5AF0" stroke-width="2.75" stroke-linecap="round" stroke-linejoin="round"/>
</svg>
