<svg width="70" height="70" viewBox="0 0 70 70" fill="none" xmlns="http://www.w3.org/2000/svg">
<path d="M10.2888 62.411L4.79053 0.73938H65.2093L59.7055 62.4017L34.9633 69.2612L10.2888 62.411V62.411Z" fill="#7F5AF0"/>
<path d="M35.0005 64.0183L54.9937 58.4752L59.6974 5.78156H35.0005V64.0183Z" fill="#7F5AF0"/>
<path d="M35.0005 28.1252H45.0094L45.7006 20.3798H35.0005V12.816H53.9672L53.7856 14.8455L51.9263 35.6891H35.0005V28.1252Z" fill="white"/>
<path d="M35.0453 47.769L35.0119 47.7788L26.5884 45.5044L26.0497 39.4718H18.458L19.5173 51.3483L35.0108 55.6484L35.0453 55.6385V47.769V47.769Z" fill="white"/>
<path d="M44.3662 35.3691L43.4551 45.4984L35.019 47.7755V55.6451L50.5251 51.3477L50.6389 50.0697L51.9547 35.3691H44.3662Z" fill="white"/>
<path d="M35.0261 12.816V20.3798H16.7561L16.6046 18.6802L16.2601 14.8455L16.0791 12.816H35.0261V12.816ZM35.0004 28.1263V35.6902H26.683L26.5315 33.9905L26.1864 30.1558L26.006 28.1263H35.0004V28.1263Z" fill="white"/>
</svg>
