<svg width="70" height="70" viewBox="0 0 70 70" fill="none" xmlns="http://www.w3.org/2000/svg">
<path d="M10.4109 62.2759L4.93945 0.908356H65.0607L59.5832 62.2666L34.9634 69.0916L10.4109 62.2759Z" fill="#7F5AF0"/>
<path d="M35 63.875L54.8942 58.3592L59.5749 5.92593H35V63.875Z" fill="#7F5AF0"/>
<path d="M34.9999 28.6863H25.0402L24.3523 20.9787H34.9999V13.4526H16.1267L16.3072 15.4716L18.1567 36.213H34.9999V28.6863ZM34.9999 48.2333L34.9666 48.2426L26.5846 45.9785L26.0492 39.9766H18.493L19.5474 51.794L34.9655 56.0738L34.9999 56.0645V48.2333Z" fill="white"/>
<path d="M34.9736 28.6863V36.213H44.2415L43.3682 45.9741L34.9736 48.2398V56.0705L50.4037 51.794L50.5169 50.5225L52.2855 30.7076L52.4687 28.6863H50.4409H34.9736ZM34.9736 13.4526V20.9787H53.1539L53.3049 19.2877L53.6483 15.4716L53.8282 13.4526H34.9736Z" fill="white"/>
</svg>
