<svg width="72" height="35" viewBox="0 0 72 35" fill="none" xmlns="http://www.w3.org/2000/svg">
<path d="M48.642 0L48.417 1.30632C48.069 3.78198 48.195 4.49026 49.149 5.40903L50.07 6.25764L49.116 10.9951C48.546 13.8216 47.847 16.1903 47.403 16.9688C47.022 17.6403 46.578 18.6292 46.482 19.1605C46.323 19.7952 45.783 20.4334 44.958 20.998C44.229 21.459 42.798 22.6952 41.784 23.6875C40.974 24.4993 40.416 24.9971 40.113 25.211L39.123 26.083C38.805 26.6509 38.625 27.1086 38.556 27.4561C38.487 27.8136 38.526 28.0508 38.628 28.2245C38.727 28.3916 38.898 28.5085 39.132 28.582C39.409 28.6543 39.6941 28.6802 39.978 28.6588C40.6202 28.61 41.2558 28.4845 41.874 28.2846C42.084 28.2212 42.249 28.161 42.393 28.1076C42.615 27.8035 43.128 27.2289 44.037 26.23C46.449 23.5806 47.37 22.1306 46.419 22.5215C46.068 22.6618 46.227 22.3077 46.83 21.5994C48.102 20.2195 48.831 18.1348 50.355 11.5965C51.561 6.43471 51.561 6.36121 52.449 6.36121C52.866 6.36121 54.045 6.44139 54.045 6.44139V0H51.339H48.642ZM60.159 10.5742C59.967 10.5742 59.649 10.8949 59.46 11.249C59.112 11.8838 59.523 12.2714 64.761 15.913C67.872 18.1081 70.38 19.979 70.317 20.1227C70.254 20.2262 67.713 22.0671 64.668 24.1886C59.142 28.004 59.112 28.0408 59.619 28.8192C60.255 29.738 59.619 30.0554 66.792 25.0706L72 21.3588V18.5658L66.189 14.57C63.048 12.3783 60.318 10.6109 60.159 10.5742ZM11.904 10.9651C11.745 10.9651 9.015 12.7692 5.874 14.9241L0 18.9199V21.713L5.841 25.7789C9.081 28.004 11.811 29.8449 11.937 29.8449C12.063 29.8449 12.318 29.5241 12.573 29.1366C12.954 28.4651 12.633 28.1811 7.269 24.3991C2.16 20.8276 1.62 20.3331 2.13 19.9456C2.448 19.6984 4.86 18.0346 7.464 16.2338C13.401 12.1678 13.083 12.4485 12.606 11.5998C12.417 11.249 12.096 10.9317 11.907 10.9651H11.904ZM37.956 11.0419C37.08 11.0352 35.196 12.522 29.556 17.6503C29.313 18.2952 29.292 18.7395 29.403 19.0268C29.475 19.2239 29.607 19.3609 29.79 19.4611C29.97 19.5614 30.204 19.6215 30.462 19.6449C30.975 19.695 31.581 19.6048 32.07 19.4979L32.4 19.4144C32.513 19.2457 32.6613 19.1103 32.832 19.0201C33.18 18.8063 34.641 17.3229 36.102 15.7326C38.673 12.8327 39.276 11.523 38.229 11.0987C38.1431 11.0606 38.0514 11.0414 37.959 11.0419H37.956ZM44.544 13.0565C43.773 13.0799 42.384 14.0755 40.005 16.1903C38.811 17.2695 38.055 17.8508 37.65 17.9711L36.078 19.3542C35.487 20.557 35.4 21.302 35.556 21.713C35.595 21.8143 35.6517 21.9061 35.7228 21.9829C35.7938 22.0598 35.8779 22.1202 35.97 22.1607C36.1992 22.2614 36.4436 22.3125 36.69 22.311C37.2788 22.304 37.8641 22.2085 38.43 22.027C38.7249 21.9389 39.0162 21.8363 39.303 21.7196L39.39 21.6796L39.549 21.586C39.849 21.155 40.539 20.3432 41.403 19.4077C44.133 16.4743 45.528 14.3896 45.243 13.6111C45.114 13.2336 44.892 13.0431 44.544 13.0565V13.0565ZM37.272 16.6648C37.05 16.6915 36.552 17.1191 35.655 17.9945C34.359 19.2707 32.946 20.0057 32.457 19.6783C32.3434 19.7069 32.2293 19.7336 32.115 19.7585C31.617 19.8687 30.996 19.959 30.441 19.9088C30.1795 19.8912 29.9232 19.8198 29.685 19.6984C29.4603 19.584 29.281 19.3819 29.181 19.1304C29.07 18.8297 29.07 18.4555 29.196 17.9778L27.246 19.7618L22.833 23.8278V30.4195L37.293 17.7339C37.2902 17.595 37.3064 17.4564 37.341 17.3229C37.452 16.8752 37.446 16.6481 37.272 16.6681V16.6648ZM43.494 18.7996C43.275 18.7996 42.909 19.1438 42.324 19.8353C41.529 20.7808 40.278 21.6963 39.615 21.8834L39.513 21.9435C39.4041 21.9935 39.2941 22.0403 39.183 22.0838C39.003 22.1506 38.769 22.2308 38.499 22.311C37.959 22.4747 37.287 22.625 36.687 22.6083C36.4041 22.6079 36.124 22.5467 35.862 22.4279C35.6151 22.3146 35.4172 22.099 35.31 21.8266C35.136 21.3622 35.205 20.7107 35.586 19.7852L22.83 30.9741V35H28.434L40.32 24.6029C40.629 24.222 41.094 23.7008 41.721 23.0493C43.401 21.3154 43.782 20.7174 43.782 19.832C43.782 19.1438 43.713 18.7963 43.494 18.7963V18.7996ZM46.323 25.3145L45.306 26.4438C44.736 27.0451 43.719 27.7868 43.023 28.1042L42.885 28.1711L42.876 28.1878L42.846 28.2212C42.819 28.2446 42.807 28.2479 42.786 28.2579C42.5082 28.375 42.2259 28.4787 41.94 28.5686C41.3043 28.7747 40.6505 28.9035 39.99 28.9528C39.6777 28.9751 39.3641 28.9447 39.06 28.8626C38.7961 28.7979 38.563 28.6265 38.406 28.3815C38.262 28.1343 38.22 27.8035 38.301 27.396C38.3654 27.1058 38.4611 26.8253 38.586 26.5607L28.995 35H41.751L43.275 33.0556C45.369 30.336 46.323 28.3916 46.323 26.7278V25.3145Z" fill="#7F5AF0"/>
</svg>
