<svg width="135" height="92" viewBox="0 0 135 92" fill="none" xmlns="http://www.w3.org/2000/svg">
<path fill-rule="evenodd" clip-rule="evenodd" d="M67.3881 55.2099C83.2529 55.2099 96.1199 42.891 96.1199 27.6984C96.1199 12.507 83.2529 0.18692 67.3881 0.18692C51.5232 0.18692 38.6575 12.507 38.6575 27.6984C38.6575 42.891 51.5232 55.2099 67.3881 55.2099Z" fill="white"/>
<path d="M105.669 0.18692V28.75H105.66C105.66 38.5122 101.348 47.3796 94.4006 53.8013C87.4669 60.2098 77.9048 64.1882 67.3893 64.1882V64.1967H67.3881V64.1882C56.8725 64.1882 47.3093 60.2098 40.3755 53.8013C33.4286 47.3796 29.1171 38.5122 29.1159 28.75H29.1087V0.18692H33.2853V28.75H33.2781C33.2781 37.3858 37.1079 45.2463 43.2807 50.9504C49.4656 56.6679 57.9994 60.2158 67.3881 60.217V60.2086H67.3893V60.217C76.7779 60.2158 85.3105 56.6679 91.4966 50.9504C97.6682 45.2463 101.499 37.3858 101.499 28.75H101.491V0.18692H105.669ZM112.96 0.18692V28.9574H112.967H112.96C112.959 39.7351 107.832 50.3258 99.5717 58.2067C91.3256 66.0756 79.9347 71.2672 67.3893 71.2672V71.2744H67.3881V71.2672C54.8414 71.2672 43.4505 66.0756 35.2044 58.2067C26.9439 50.3258 21.8174 39.7351 21.8174 28.9586H21.8089V28.9574H21.8174V0.18692H25.9783V28.9574H25.9868V28.9586H25.9783C25.9783 38.6545 30.6377 48.2262 38.1422 55.3872C45.661 62.5614 56.0153 67.2948 67.3881 67.2948V67.2875H67.3893V67.2948C78.7621 67.2948 89.1163 62.5614 96.6352 55.3872C104.14 48.2262 108.798 38.6545 108.798 28.9574H108.791H108.798V0.18692H112.96ZM119.919 0.18692V31.8541H119.911C119.911 43.6544 113.986 55.2449 104.441 63.8699C94.9352 72.4575 81.8202 78.1243 67.3893 78.1243V78.1327H67.3881V78.1243C52.9571 78.1243 39.8422 72.4575 30.3355 63.8686C20.7904 55.2449 14.8668 43.6544 14.8656 31.8553H14.8584V0.18692H19.035V31.8553H19.0265C19.0278 42.5401 24.4517 53.091 33.1914 60.9876C41.9708 68.9192 54.0756 74.1518 67.3881 74.1518V74.1446H67.3893V74.1518C80.7005 74.1518 92.8065 68.9192 101.585 60.9876C110.324 53.091 115.75 42.5401 115.75 31.8541H115.741V0.18692H119.919ZM127.334 0.18692V31.3404H127.326C127.326 44.0946 120.579 57.4735 109.71 67.6361C98.8637 77.7769 83.885 84.7606 67.3893 84.7606V84.7691H67.3881V84.7606C50.8923 84.7606 35.9136 77.7769 25.0669 67.6361C14.1986 57.4735 7.45147 44.0946 7.45147 31.3404H7.44305V0.18692H11.6209V31.3404H11.6124C11.6124 43.0177 17.884 55.3546 27.9878 64.8009C38.1133 74.2688 52.0626 80.7882 67.3881 80.7882V80.7798H67.3893V80.7882C82.7135 80.7882 96.6629 74.2688 106.79 64.8009C116.893 55.3546 123.164 43.0165 123.164 31.3404H123.156V0.18692H127.334ZM134.74 0.18692V31.1728H134.748H134.74C134.74 44.3502 128.261 59.5369 116.601 71.4011C104.947 83.2568 88.111 91.8384 67.3893 91.8384V91.8468H67.3881V91.8384C47.4249 91.8384 30.5884 83.5438 18.7472 71.8316C6.89764 60.1121 0.0373586 44.9267 0.0361547 31.174H0.0289307V31.1728H0.0361547V0.18692H4.19711V31.1728H4.20554V31.174H4.19711C4.19832 43.927 10.6336 58.0813 21.7488 69.0748C32.8723 80.0755 48.671 87.866 67.3881 87.866V87.8587H67.3893V87.866C86.8239 87.866 102.623 79.8078 113.566 68.6744C124.501 57.547 130.579 43.3939 130.579 31.1728H130.571H130.579V0.18692H134.74Z" fill="white"/>
</svg>
